Bait 2012 BDRiP AC3-5 1 XviD-AXED 

IMDB:  
http://www.imdb.com/title/tt1438173/

PLOT INFO:
A freak tsunami traps shoppers at a coastal Australian supermarket inside the building - along with a 12-foot Great White Shark.

Media Info: 
General
Complete name                    : Bait.2012.BDRiP.AC3-5.1.XviD-AXED.avi
Format                           : AVI
Format/Info                      : Audio Video Interleave
File size                        : 1.37 GiB
Duration                         : 1h 33mn
Overall bit rate                 : 2 104 Kbps

Video
ID                               : 0
Format                           : MPEG-4 Visual
Format profile                   : Advanced Simple@L5
Format settings, BVOP            : 1
Format settings, QPel            : No
Format settings, GMC             : No warppoints
Format settings, Matrix          : Default (H.263)
Codec ID                         : XVID
Codec ID/Hint                    : XviD
Duration                         : 1h 33mn
Bit rate                         : 1 712 Kbps
Width                            : 720 pixels
Height                           : 400 pixels
Display aspect ratio             : 16:9
Frame rate                       : 23.976 fps
Color space                      : YUV
Chroma subsampling               : 4:2:0
Bit depth                        : 8 bits
Scan type                        : Progressive
Compression mode                 : Lossy
Bits/(Pixel*Frame)               : 0.248
Stream size                      : 1.12 GiB (81%)
Writing library                  : XviD 1.2.1 (UTC 2008-12-04)

Audio
ID                               : 1
Format                           : AC-3
Format/Info                      : Audio Coding 3
Mode extension                   : CM (complete main)
Codec ID                         : 2000
Duration                         : 1h 33mn
Bit rate mode                    : Constant
Bit rate                         : 384 Kbps
Channel(s)                       : 6 channels
Channel positions                : Front: L C R, Side: L R, LFE
Sampling rate                    : 48.0 KHz
Bit depth                        : 16 bits
Compression mode                 : Lossy
Stream size                      : 256 MiB (18%)
Alignment                        : Aligned on interleaves
Interleave, duration             : 64 ms (1.53 video frames)
Interleave, preload duration     : 192 ms
Title                            : 00001.track_4352_new

SOURCE: 
RA Retail Bluray Disc

NOTES: 
I HAVE HAD IT WITH THESE MOTHERFUCKIN' SHARKS IN THIS MOTHERFUCKIN' STORE. 
Straight rip from the 3D Blu Ray/Blu Ray/DVD Combo Pack. 3D and HD to follow.

AXED! We do this better.


Poster:

 
http://i.imgur.com/ArA7a.jpg


Screenshots:

 
http://i.imgur.com/8eHE3.jpg


ENJOY!